<?xml version="1.0" encoding="utf-8"?>
<svg xmlns="http://www.w3.org/2000/svg" viewBox="-75 -79.397 650 650" width="650px" height="650px"><defs><linearGradient id="gradOuter" x1="0%" y1="0%" x2="100%" y2="100%"><stop offset="0" stop-color="#a0eacb"/><stop offset="1" stop-color="#02574c"/></linearGradient></defs><g id="object-2"><rect x="-75" y="-79.397" width="650" height="650" rx="48" fill="url(#gradOuter)" style="stroke-width: 1; pointer-events: none;" id="object-0"/><g transform="matrix(1, 0, 0, 1, -228.505585, -196.289536)" id="object-1"><g transform="matrix(1, 0, 0, 1, -22.885544, -79.17572)"><path d="M 322.252 282.739 C 323.431 282.735 324.61 282.731 325.824 282.727 C 329.084 282.719 332.344 282.719 335.604 282.724 C 339.125 282.726 342.646 282.717 346.167 282.71 C 353.062 282.697 359.957 282.695 366.853 282.697 C 372.462 282.699 378.072 282.697 383.682 282.693 C 384.482 282.693 385.281 282.692 386.104 282.691 C 387.728 282.69 389.352 282.689 390.976 282.688 C 406.205 282.677 421.434 282.679 436.662 282.685 C 450.567 282.69 464.472 282.679 478.376 282.66 C 492.674 282.641 506.971 282.632 521.268 282.636 C 529.287 282.638 537.305 282.636 545.324 282.621 C 552.155 282.609 558.987 282.608 565.818 282.62 C 569.298 282.626 572.777 282.627 576.256 282.615 C 593.345 282.568 609.27 283.048 625.571 288.687 C 626.316 288.942 627.06 289.197 627.828 289.46 C 656.124 299.542 679.622 320.846 692.789 347.794 C 700.185 363.744 703.936 379.412 703.883 397 C 703.883 398.028 703.883 398.028 703.882 399.076 C 703.841 410.133 702.973 420.446 699.508 431 C 699.289 431.685 699.069 432.371 698.843 433.077 C 692.953 451.025 683.456 467.402 670.161 480.879 C 668.099 483.077 668.099 483.077 668.508 487 C 670.369 488.939 670.369 488.939 672.883 490.687 C 704.232 514.574 726.985 548.402 732.594 587.91 C 733.564 595.466 733.815 602.904 733.769 610.516 C 733.758 612.631 733.769 614.745 733.782 616.859 C 733.806 638.017 728.806 658.062 719.508 677 C 719.2 677.639 718.892 678.278 718.575 678.937 C 711.905 692.638 702.965 703.93 692.508 715 C 691.466 716.121 691.466 716.121 690.403 717.265 C 671.004 737.477 645.594 750.666 618.508 757 C 617.793 757.173 617.078 757.347 616.341 757.526 C 609.528 759.052 602.999 759.286 596.035 759.267 C 594.204 759.274 594.204 759.274 592.335 759.281 C 588.972 759.291 585.609 759.293 582.245 759.29 C 578.608 759.29 574.97 759.301 571.333 759.311 C 564.217 759.327 557.101 759.333 549.985 759.334 C 544.198 759.335 538.411 759.339 532.624 759.345 C 516.198 759.363 499.772 759.372 483.346 759.371 C 482.462 759.37 481.578 759.37 480.667 759.37 C 479.338 759.37 479.338 759.37 477.984 759.37 C 463.633 759.369 449.283 759.388 434.933 759.417 C 420.179 759.445 405.425 759.459 390.672 759.457 C 382.396 759.457 374.121 759.462 365.845 759.484 C 358.8 759.502 351.755 759.506 344.71 759.493 C 341.12 759.486 337.53 759.486 333.939 759.503 C 330.038 759.522 326.137 759.51 322.235 759.494 C 321.114 759.504 319.992 759.515 318.836 759.525 C 304.941 759.405 292.861 754.139 282.696 744.687 C 273.663 735.026 269.394 723.258 269.374 710.16 C 269.372 709.494 269.369 708.827 269.367 708.14 C 269.36 705.909 269.361 703.677 269.361 701.446 C 269.358 699.829 269.354 698.212 269.35 696.595 C 269.34 692.153 269.336 687.711 269.334 683.268 C 269.33 678.477 269.32 673.685 269.311 668.894 C 269.292 657.323 269.282 645.753 269.273 634.182 C 269.268 628.731 269.263 623.28 269.258 617.829 C 269.241 599.705 269.226 581.582 269.219 563.458 C 269.217 558.756 269.215 554.055 269.213 549.353 C 269.213 548.185 269.212 547.016 269.212 545.813 C 269.203 526.884 269.178 507.956 269.146 489.028 C 269.113 469.588 269.095 450.149 269.091 430.709 C 269.089 419.797 269.08 408.885 269.055 397.973 C 269.033 388.68 269.025 379.387 269.035 370.093 C 269.039 365.355 269.038 360.616 269.018 355.877 C 269 351.532 269.001 347.188 269.017 342.843 C 269.019 341.278 269.015 339.713 269.003 338.147 C 268.893 322.686 272.017 309.59 282.469 297.785 C 293.559 287.046 307.185 282.687 322.252 282.739 Z" fill="#035D62" style="stroke-width: 1;"/><path d="M 608.847 323.89 C 611.222 325.847 611.222 325.847 612.847 328.901 C 613.463 337.129 611.708 344.666 610.109 352.603 C 609.827 354.025 609.546 355.447 609.256 356.911 C 608.661 359.906 608.061 362.9 607.458 365.892 C 606.536 370.474 605.633 375.062 604.732 379.65 C 604.15 382.563 603.568 385.475 602.984 388.387 C 602.715 389.759 602.446 391.131 602.169 392.544 C 601.909 393.819 601.649 395.096 601.381 396.41 C 601.157 397.529 600.932 398.649 600.701 399.803 C 599.788 403.029 598.591 405.217 596.847 407.832 C 592.699 407.942 590.749 407.614 587.624 404.029 C 586.133 402.007 584.674 399.947 583.253 397.847 C 580.023 394.431 578.061 393.86 573.847 394.05 C 571.56 396.343 570.078 398.213 568.285 401.018 C 567.246 402.531 566.204 404.04 565.159 405.546 C 564.351 406.73 564.351 406.73 563.527 407.937 C 551.054 425.757 536.547 439.89 520.847 452.935 C 519.822 453.799 518.797 454.662 517.742 455.553 C 492.875 475.678 464.9 487.12 435.847 493.026 C 434.779 493.258 433.712 493.488 432.611 493.728 C 419.68 496.248 406.675 496.007 393.618 496.103 C 361.253 495.098 361.253 495.098 331.972 509 C 329.575 511.515 329.575 511.515 329.909 514.638 C 331.085 518.957 332.748 519.795 335.861 521.893 C 338.916 523.741 342.052 525.128 345.285 526.384 C 346.521 526.891 347.757 527.398 349.031 527.921 C 362.917 532.495 377.237 532.261 391.482 532.192 C 394.775 532.178 398.068 532.192 401.361 532.207 C 420.843 532.677 420.843 532.677 439.847 528.106 C 444.356 527.378 447.694 527.014 451.409 530.534 C 453.772 536.839 453.333 542.532 452.285 549.248 C 449.567 554.281 444.375 555.665 439.796 556.814 C 438.377 557.122 436.957 557.419 435.535 557.705 C 434.839 557.857 434.144 558.008 433.427 558.165 C 431.237 558.627 429.046 559.039 426.847 559.428 C 426.159 559.552 425.471 559.675 424.762 559.802 C 415.675 561.183 406.486 560.986 397.347 560.994 C 395.982 560.995 395.982 560.995 394.589 560.996 C 332.546 560.905 332.546 560.905 312.597 537.346 C 306.404 529.147 307.203 518.445 307.417 507.87 C 307.784 500.35 309.338 495.599 313.847 490.52 C 314.528 489.749 315.208 488.977 315.909 488.181 C 337.288 467.098 369.192 468.129 395.04 467.606 C 452.984 466.414 500.698 443.881 541.562 391.853 C 543.708 389.21 545.921 386.767 548.222 384.34 C 551.439 380.85 553.949 377.61 555.847 372.751 C 555.509 364.984 552.558 361.364 548.562 355.794 C 546.847 352.706 546.847 352.706 546.288 349.5 C 547.096 345.076 548.91 343.977 551.847 341.43 C 554.728 340.06 554.728 340.06 557.906 339.012 C 559.086 338.615 560.267 338.216 561.483 337.805 C 563.365 337.196 563.365 337.196 565.285 336.575 C 566.585 336.143 567.885 335.711 569.185 335.276 C 571.811 334.399 574.438 333.531 577.066 332.666 C 580.534 331.511 583.989 330.313 587.441 329.087 C 588.434 328.737 589.427 328.386 590.451 328.024 C 592.291 327.374 594.13 326.716 595.968 326.053 C 600.348 324.526 604.254 323.317 608.847 323.89 Z" fill="#96E1C7" style="stroke-width: 1;"/><path d="M 307.778 561 C 308.345 561.399 308.912 561.798 309.496 562.209 C 320.824 570.103 332.523 574.589 345.778 578 C 346.649 578.226 347.521 578.451 348.419 578.684 C 363.236 582.025 378.737 582.351 393.857 582.316 C 396.645 582.313 399.432 582.336 402.219 582.361 C 412.503 582.396 422.409 581.778 432.558 580.051 C 436.769 579.347 440.93 578.831 445.199 578.657 C 446.005 578.624 446.81 578.591 447.64 578.557 C 449.778 579 449.778 579 451.539 580.858 C 453.091 583.541 453.179 585.351 453.153 588.438 C 453.161 589.364 453.168 590.291 453.176 591.246 C 452.68 594.677 452.066 596.366 449.778 599 C 446.95 599.997 444.506 600.652 441.59 601.188 C 440.88 601.339 440.169 601.49 439.436 601.646 C 425.473 604.478 411.668 605.377 397.466 605.312 C 396.643 605.311 395.821 605.31 394.974 605.308 C 367.71 605.22 331.39 605.079 310.075 585.52 C 306.594 581.216 307.233 576.402 307.466 571.125 C 307.488 570.15 307.511 569.176 307.534 568.172 C 307.593 565.78 307.674 563.391 307.778 561 Z" fill="#90DFC8" style="stroke-width: 1;"/><path d="M 307.365 605.315 C 308.355 606.161 309.345 607.006 310.365 607.877 C 330.791 623.116 359.707 625.655 384.365 626.315 C 385.17 626.342 385.976 626.369 386.805 626.398 C 404.046 626.929 423.6 626.764 440.365 622.315 C 441.882 622.178 443.405 622.096 444.927 622.065 C 445.692 622.039 446.456 622.013 447.244 621.987 C 449.365 622.315 449.365 622.315 451.119 623.499 C 453.684 627.238 452.78 631.985 452.365 636.315 C 451.553 639.815 451.553 639.815 449.365 642.315 C 414.556 655.769 358.664 651.717 324.396 638.667 C 317.239 635.475 310.966 631.516 307.365 624.315 C 307.282 622.867 307.258 621.414 307.267 619.963 C 307.271 619.113 307.274 618.262 307.277 617.385 C 307.286 616.496 307.294 615.606 307.303 614.69 C 307.307 613.793 307.312 612.896 307.316 611.971 C 307.328 609.752 307.344 607.534 307.365 605.315 Z" fill="#8EDFC8" style="stroke-width: 1;"/><path d="M 307.365 650.637 C 308.355 651.483 309.345 652.328 310.365 653.199 C 330.791 668.438 359.707 670.977 384.365 671.637 C 385.17 671.664 385.976 671.691 386.805 671.72 C 404.046 672.251 423.6 672.086 440.365 667.637 C 441.882 667.5 443.405 667.418 444.927 667.387 C 445.692 667.361 446.456 667.335 447.244 667.309 C 449.365 667.637 449.365 667.637 451.119 668.821 C 453.684 672.56 452.78 677.307 452.365 681.637 C 451.553 685.137 451.553 685.137 449.365 687.637 C 414.556 701.091 358.664 697.039 324.396 683.989 C 317.239 680.797 310.966 676.838 307.365 669.637 C 307.282 668.189 307.258 666.736 307.267 665.285 C 307.271 664.435 307.274 663.584 307.277 662.707 C 307.286 661.818 307.294 660.928 307.303 660.012 C 307.307 659.115 307.312 658.218 307.316 657.293 C 307.328 655.074 307.344 652.856 307.365 650.637 Z" fill="#8EDFC8" style="stroke-width: 1;"/><path d="M 307.365 695.959 C 308.355 696.805 309.345 697.65 310.365 698.521 C 330.791 713.76 359.707 716.299 384.365 716.959 C 385.17 716.986 385.976 717.013 386.805 717.042 C 404.046 717.573 423.6 717.408 440.365 712.959 C 441.882 712.822 443.405 712.74 444.927 712.709 C 445.692 712.683 446.456 712.657 447.244 712.631 C 449.365 712.959 449.365 712.959 451.119 714.143 C 453.684 717.882 452.78 722.629 452.365 726.959 C 451.553 730.459 451.553 730.459 449.365 732.959 C 414.556 746.413 358.664 742.361 324.396 729.311 C 317.239 726.119 310.966 722.16 307.365 714.959 C 307.282 713.511 307.258 712.058 307.267 710.607 C 307.271 709.757 307.274 708.906 307.277 708.029 C 307.286 707.14 307.294 706.25 307.303 705.334 C 307.307 704.437 307.312 703.54 307.316 702.615 C 307.328 700.396 307.344 698.178 307.365 695.959 Z" fill="#8EDFC8" style="stroke-width: 1;"/><path d="M 627.134 508.243 C 627.898 508.234 628.66 508.226 629.447 508.217 C 631.064 508.202 632.68 508.193 634.297 508.187 C 636.764 508.172 639.229 508.126 641.695 508.079 C 643.267 508.069 644.838 508.061 646.41 508.055 C 647.145 508.037 647.879 508.018 648.636 508 C 653.103 508.028 656.009 508.779 659.502 513.04 C 661.269 517.375 661.757 520.615 661.766 525.66 C 661.773 526.978 661.78 528.296 661.787 529.653 C 661.785 531.088 661.782 532.523 661.78 534.001 C 661.785 535.521 661.79 537.043 661.795 538.61 C 661.81 543.646 661.808 548.68 661.806 553.716 C 661.81 557.224 661.814 560.733 661.819 564.241 C 661.827 571.605 661.826 578.968 661.821 586.332 C 661.815 595.732 661.832 605.133 661.855 614.534 C 661.87 621.787 661.871 629.04 661.868 636.292 C 661.869 639.755 661.873 643.22 661.884 646.683 C 661.959 675.617 661.066 700.131 647.071 722.248 C 639.386 732.596 630.106 739.003 619.913 741.281 C 617.445 740.713 617.444 740.713 615.319 737.499 C 613.142 732.549 612.936 730.053 612.93 724.186 C 612.919 722.371 612.908 720.557 612.896 718.687 C 612.904 716.689 612.912 714.691 612.921 712.693 C 612.916 710.58 612.908 708.465 612.899 706.351 C 612.882 700.62 612.888 694.89 612.901 689.157 C 612.911 683.155 612.902 677.154 612.895 671.152 C 612.888 661.074 612.898 650.997 612.917 640.918 C 612.939 629.27 612.931 617.625 612.909 605.977 C 612.892 595.972 612.889 585.968 612.899 575.962 C 612.906 569.988 612.906 564.015 612.893 558.042 C 612.882 552.426 612.89 546.811 612.913 541.194 C 612.918 539.134 612.916 537.075 612.908 535.015 C 612.897 532.201 612.913 529.386 612.93 526.573 C 612.932 524.999 612.933 523.425 612.935 521.803 C 613.567 516.449 614.955 513.933 617.444 510.045 C 620.521 507.744 623.757 508.271 627.134 508.243 Z" fill="#93DFC7" style="stroke-width: 1;"/><path d="M 557.371 561.371 C 558.118 561.358 558.866 561.346 559.635 561.334 C 561.219 561.312 562.801 561.295 564.384 561.283 C 566.798 561.257 569.21 561.189 571.622 561.121 C 573.162 561.106 574.7 561.092 576.239 561.081 C 576.958 561.055 577.677 561.027 578.416 561 C 583.404 561.033 585.893 562.685 589.395 567.895 C 590.581 571.404 590.571 573.347 590.582 577.245 C 590.588 578.557 590.594 579.869 590.6 581.222 C 590.602 582.665 590.603 584.107 590.604 585.593 C 590.611 587.87 590.611 587.87 590.619 590.192 C 590.635 595.229 590.641 600.265 590.648 605.303 C 590.654 608.798 590.659 612.291 590.665 615.786 C 590.676 623.122 590.681 630.458 590.686 637.794 C 590.691 647.192 590.716 656.59 590.747 665.989 C 590.766 673.211 590.771 680.432 590.772 687.654 C 590.775 691.12 590.783 694.584 590.798 698.048 C 590.816 702.897 590.814 707.747 590.807 712.598 C 590.821 714.743 590.821 714.743 590.835 716.932 C 590.802 724.869 590.308 730.378 587.312 737.25 C 583.779 741.383 579.506 740.853 575.182 740.901 C 574.415 740.915 573.647 740.928 572.857 740.944 C 571.237 740.965 569.618 740.979 567.998 740.985 C 565.528 741.004 563.059 741.079 560.59 741.156 C 559.013 741.172 557.435 741.182 555.858 741.19 C 555.124 741.219 554.389 741.25 553.633 741.281 C 549.974 741.232 547.959 740.545 544.958 737.398 C 541.542 730.642 541.817 725.272 541.876 717.04 C 541.867 715.476 541.856 713.91 541.847 712.297 C 541.825 707.127 541.84 701.958 541.857 696.788 C 541.853 693.193 541.848 689.598 541.842 686.004 C 541.835 678.47 541.846 670.939 541.871 663.407 C 541.899 653.751 541.883 644.096 541.851 634.441 C 541.833 627.017 541.839 619.595 541.852 612.172 C 541.855 608.613 541.851 605.052 541.839 601.492 C 541.827 596.516 541.846 591.542 541.876 586.566 C 541.866 585.094 541.854 583.622 541.843 582.106 C 541.921 575.021 542.017 571.975 545.063 566.248 C 549.275 561.598 552.262 561.451 557.371 561.371 Z" fill="#92DEC7" style="stroke-width: 1;"/><path d="M 488.88 624.425 C 489.627 624.417 490.375 624.409 491.144 624.401 C 492.727 624.387 494.31 624.376 495.893 624.368 C 498.306 624.351 500.719 624.307 503.13 624.263 C 504.67 624.253 506.209 624.244 507.748 624.237 C 508.467 624.22 509.184 624.202 509.923 624.184 C 514.911 624.206 517.401 625.279 520.904 628.663 C 522.089 630.942 522.08 632.204 522.09 634.736 C 522.096 635.588 522.102 636.44 522.107 637.319 C 522.108 638.256 522.111 639.193 522.112 640.158 C 522.119 641.637 522.119 641.637 522.128 643.145 C 522.142 646.417 522.149 649.688 522.155 652.96 C 522.16 655.23 522.167 657.499 522.173 659.769 C 522.184 664.534 522.19 669.299 522.194 674.064 C 522.199 680.168 522.225 686.272 522.254 692.377 C 522.274 697.068 522.28 701.758 522.281 706.449 C 522.284 708.7 522.292 710.95 522.305 713.2 C 522.324 716.35 522.323 719.5 522.314 722.651 C 522.33 724.044 522.33 724.044 522.344 725.466 C 522.309 730.621 521.816 734.199 518.821 738.663 C 515.288 741.347 511.015 741.003 506.691 741.034 C 505.923 741.043 505.156 741.052 504.366 741.062 C 502.746 741.076 501.126 741.085 499.507 741.089 C 497.037 741.101 494.568 741.15 492.099 741.2 C 490.522 741.21 488.944 741.217 487.367 741.222 C 486.632 741.241 485.898 741.261 485.142 741.281 C 481.481 741.249 479.468 740.803 476.467 738.759 C 473.051 734.371 473.326 730.883 473.385 725.536 C 473.376 724.52 473.365 723.503 473.356 722.455 C 473.334 719.097 473.349 715.74 473.366 712.382 C 473.362 710.047 473.357 707.712 473.351 705.377 C 473.344 700.484 473.355 695.592 473.38 690.7 C 473.408 684.428 473.392 678.157 473.36 671.886 C 473.342 667.064 473.348 662.243 473.361 657.422 C 473.364 655.11 473.36 652.797 473.348 650.485 C 473.335 647.253 473.355 644.022 473.385 640.79 C 473.374 639.834 473.363 638.878 473.352 637.893 C 473.429 633.291 473.526 631.313 476.572 627.593 C 480.783 624.573 483.771 624.477 488.88 624.425 Z" fill="#92DEC7" style="stroke-width: 1;"/><path d="M 444.487 321.168 C 448.312 322.676 451.967 325.956 454.252 329.514 C 454.626 331.063 454.626 331.063 454.933 332.943 C 455.096 333.856 455.096 333.856 455.265 334.789 C 455.293 341.671 450.615 346.243 446.696 351.051 C 445.999 351.915 445.304 352.781 444.61 353.647 C 442.726 355.987 440.836 358.319 438.944 360.649 C 436.961 363.094 434.983 365.546 433.008 367.996 C 429.688 372.107 426.361 376.213 423.032 380.317 C 419.187 385.058 415.349 389.804 411.516 394.557 C 408.226 398.645 404.926 402.728 401.624 406.805 C 399.652 409.238 397.683 411.674 395.721 414.111 C 393.873 416.404 392.018 418.69 390.158 420.971 C 389.478 421.811 388.801 422.649 388.124 423.49 C 387.202 424.64 386.267 425.783 385.334 426.924 C 384.815 427.564 384.295 428.205 383.76 428.867 C 380.998 431.618 378.051 433.09 373.879 433.068 C 368.562 432.566 365.202 430.066 361.137 426.53 C 360.581 426.059 360.027 425.586 359.455 425.101 C 357.634 423.552 355.821 421.99 354.01 420.425 C 352.743 419.341 351.475 418.257 350.206 417.173 C 347.555 414.906 344.908 412.633 342.265 410.354 C 338.877 407.437 335.479 404.527 332.076 401.624 C 329.46 399.389 326.848 397.15 324.235 394.908 C 322.984 393.833 321.731 392.762 320.477 391.691 C 318.727 390.193 316.981 388.689 315.241 387.183 C 314.461 386.522 314.461 386.522 313.669 385.845 C 310.189 382.821 308.117 380.4 307.411 375.845 C 307.023 372.376 307.355 369.726 309.067 366.873 C 312.196 363.331 315.051 361.602 319.992 361.502 C 328.745 362.078 337.667 372.365 344.158 377.987 C 344.886 378.617 345.612 379.246 346.339 379.876 C 349.356 382.485 352.372 385.097 355.375 387.723 C 357.235 389.346 359.099 390.96 360.97 392.569 C 362.018 393.476 363.06 394.395 364.099 395.307 C 364.733 395.851 365.367 396.395 366.018 396.955 C 366.573 397.435 367.127 397.919 367.699 398.416 C 369.108 399.494 369.108 399.494 370.403 399.193 C 372.188 398.349 373.064 397.202 374.292 395.671 C 374.794 395.048 375.296 394.43 375.813 393.79 C 376.361 393.097 376.915 392.405 377.463 391.711 C 378.047 390.985 378.633 390.26 379.216 389.534 C 380.475 387.972 381.727 386.404 382.981 384.834 C 384.963 382.352 386.954 379.879 388.944 377.403 C 393.531 371.706 398.107 365.992 402.684 360.284 C 406.873 355.052 411.063 349.826 415.267 344.608 C 417.243 342.149 419.216 339.687 421.183 337.223 C 422.412 335.687 423.646 334.153 424.877 332.622 C 425.447 331.915 426.015 331.204 426.581 330.492 C 431.751 323.982 435.371 320.413 444.487 321.168 Z" fill="#A6EACC" style="stroke-width: 1; transform-origin: 91.233px 181.691px;"/></g><g transform="matrix(1, 0, 0, 1, 34.060341, -31.605364)"><path d="M 660.279 170.344 C 662.717 171.156 662.717 171.156 664.717 173.156 C 665.307 174.985 665.307 174.985 665.795 177.192 C 665.982 177.997 666.17 178.802 666.364 179.632 C 666.563 180.486 666.762 181.339 666.967 182.219 C 669.688 193.039 673.081 200.283 682.65 206.594 C 687.017 208.819 691.543 210.209 696.271 211.472 C 702.76 213.233 702.76 213.233 704.717 216.156 C 704.842 219.156 704.841 219.156 703.717 222.156 C 700.501 224.015 697.455 224.941 693.9 225.977 C 683.683 229.083 676.418 233.482 671.127 242.989 C 668.944 247.892 667.295 252.959 665.72 258.087 C 663.904 263.969 663.904 263.969 661.717 266.156 C 659.279 266.532 659.279 266.532 656.717 266.156 C 653.421 262.861 652.858 258.994 651.967 254.594 C 649.833 245.296 646.357 237.418 638.404 231.656 C 634.488 229.332 630.537 227.968 626.15 226.805 C 616.9 224.34 616.9 224.34 613.717 221.156 C 613.467 218.156 613.467 218.156 613.717 215.156 C 616.388 212.485 619.28 212.128 622.841 211.282 C 633.442 208.595 642.04 205.032 647.841 195.344 C 650.663 189.945 652.119 184.482 653.336 178.552 C 655.163 169.97 655.163 169.97 660.279 170.344 Z" fill="#B4F3D8" style="stroke-width: 1;"/><path d="M 716.717 284.156 C 718.392 284.442 720.061 284.774 721.717 285.156 C 722.154 286.658 722.154 286.658 722.6 288.191 C 725.37 297.329 727.787 303.838 735.967 309.344 C 739.696 311.317 743.673 312.632 747.678 313.933 C 749.717 315.156 749.717 315.156 750.631 317.66 C 750.659 318.484 750.688 319.307 750.717 320.156 C 748.196 322.677 745.964 323.197 742.592 324.344 C 734.771 327.308 729.024 330.779 725.405 338.531 C 724.812 340.061 724.25 341.604 723.717 343.156 C 723.27 344.43 723.27 344.43 722.815 345.73 C 722.088 347.865 721.389 350.004 720.717 352.156 C 718.342 352.781 718.342 352.781 715.717 353.156 C 713.458 350.897 713.399 350.197 712.905 347.156 C 711.188 339.018 708.114 332.226 701.115 327.453 C 697.295 325.387 693.263 323.93 689.158 322.527 C 686.717 321.156 686.717 321.156 685.869 318.504 C 685.819 317.729 685.769 316.954 685.717 316.156 C 689.274 313.893 692.781 312.277 696.717 310.781 C 705.152 307.292 708.929 302.254 712.717 294.156 C 713.608 291.756 714.407 289.358 715.139 286.906 C 715.717 285.156 715.717 285.156 716.717 284.156 Z" fill="#AFF0D5" style="stroke-width: 1;"/></g></g></g></svg>