<svg xmlns="http://www.w3.org/2000/svg" viewBox="-75 -79.397 650 650" width="650" height="650"><title>Budget-Wise-Icon</title><defs><linearGradient id="prefix__a" x1="0%" y1="0%" x2="100%" y2="100%"><stop offset="0" stop-color="#a0eacb"/><stop offset="1" stop-color="#02574c"/></linearGradient></defs><rect x="-75" y="-79.397" width="650" height="650" rx="48" fill="url(#prefix__a)" pointer-events="none"/><path d="M70.86 7.274l3.573-.012c3.26-.008 6.52-.008 9.78-.003 3.52.002 7.042-.007 10.563-.014 6.895-.013 13.79-.015 20.686-.013 5.609.002 11.219 0 16.829-.004l2.422-.002 4.872-.003c15.229-.011 30.458-.01 45.686-.003 13.905.005 27.81-.006 41.714-.025 14.298-.02 28.595-.028 42.892-.024 8.019.002 16.037 0 24.056-.015 6.83-.012 13.663-.013 20.494-.001 3.48.006 6.959.007 10.438-.005 17.089-.047 33.014.433 49.315 6.072l2.257.773c28.296 10.082 51.794 31.386 64.96 58.334 7.397 15.95 11.148 31.618 11.095 49.206l-.001 2.076c-.041 11.057-.91 21.37-4.374 31.924-.22.685-.44 1.37-.665 2.077-5.89 17.948-15.387 34.325-28.682 47.802-2.062 2.198-2.062 2.198-1.653 6.12 1.86 1.94 1.86 1.94 4.375 3.688 31.349 23.887 54.102 57.715 59.71 97.223.97 7.556 1.222 14.994 1.176 22.606-.011 2.115 0 4.229.013 6.343.024 21.158-4.976 41.203-14.274 60.14l-.933 1.938c-6.67 13.7-15.61 24.993-26.067 36.063l-2.105 2.265c-19.4 20.212-44.81 33.4-71.895 39.735l-2.167.526c-6.813 1.526-13.342 1.76-20.306 1.74l-3.7.015c-3.363.01-6.726.012-10.09.009-3.637 0-7.275.01-10.912.02-7.116.017-14.232.023-21.348.024-5.787 0-11.574.005-17.361.01-16.426.019-32.852.028-49.278.027l-2.68-.001h-2.682a20592.5 20592.5 0 00-43.051.047c-14.754.028-29.508.042-44.261.04-8.276 0-16.551.005-24.827.027-7.045.018-14.09.022-21.135.009-3.59-.007-7.18-.007-10.771.01-3.901.019-7.802.007-11.704-.01l-3.4.032c-13.894-.12-25.974-5.386-36.14-14.838-9.032-9.661-13.301-21.43-13.321-34.527l-.007-2.02c-.007-2.231-.006-4.463-.006-6.694l-.011-4.851c-.01-4.442-.014-8.884-.016-13.327-.004-4.791-.014-9.583-.023-14.374-.02-11.571-.03-23.141-.038-34.712l-.015-16.353c-.017-18.124-.032-36.247-.04-54.371l-.005-14.105-.001-3.54c-.01-18.93-.034-37.857-.066-56.785-.033-19.44-.051-38.88-.055-58.32a15531.13 15531.13 0 00-.036-32.735c-.022-9.293-.03-18.586-.02-27.88.004-4.738.003-9.477-.017-14.216-.018-4.345-.017-8.69-.001-13.034.002-1.565-.002-3.13-.014-4.696-.11-15.461 3.014-28.557 13.466-40.362C42.168 11.58 55.794 7.222 70.86 7.274z" fill="#035D62"/><path d="M357.456 48.425c2.375 1.957 2.375 1.957 4 5.01.616 8.229-1.14 15.766-2.738 23.703l-.853 4.308c-.595 2.995-1.195 5.989-1.798 8.98-.922 4.583-1.825 9.17-2.726 13.759-.582 2.913-1.164 5.825-1.748 8.737l-.815 4.157-.788 3.866c-.224 1.119-.45 2.239-.68 3.393-.913 3.226-2.11 5.414-3.854 8.029-4.148.11-6.098-.218-9.223-3.803a187.004 187.004 0 01-4.371-6.182c-3.23-3.416-5.192-3.987-9.406-3.797-2.287 2.293-3.77 4.163-5.562 6.968a1132.033 1132.033 0 01-3.126 4.528l-1.632 2.39c-12.473 17.82-26.98 31.954-42.68 44.999-1.025.864-2.05 1.727-3.105 2.618-24.867 20.125-52.842 31.567-81.895 37.473-1.068.232-2.135.462-3.236.702-12.931 2.52-25.936 2.279-38.993 2.375-32.365-1.005-32.365-1.005-61.646 12.897-2.397 2.515-2.397 2.515-2.063 5.638 1.176 4.319 2.839 5.157 5.952 7.255 3.055 1.848 6.19 3.235 9.424 4.49l3.746 1.538c13.886 4.574 28.206 4.34 42.45 4.27 3.294-.013 6.587 0 9.88.016 19.482.47 19.482.47 38.486-4.101 4.509-.728 7.847-1.092 11.562 2.428 2.363 6.305 1.924 11.998.876 18.714-2.718 5.033-7.91 6.417-12.49 7.566-1.418.308-2.838.605-4.26.89-.696.153-1.391.304-2.108.46-2.19.463-4.381.875-6.58 1.264l-2.085.374c-9.087 1.38-18.276 1.184-27.415 1.192l-2.758.002c-62.043-.091-62.043-.091-81.992-23.65-6.193-8.2-5.394-18.901-5.18-29.476.367-7.52 1.92-12.271 6.43-17.35l2.062-2.34c21.379-21.082 53.283-20.051 79.13-20.574 57.945-1.192 105.659-23.725 146.523-75.753 2.146-2.643 4.359-5.086 6.66-7.513 3.217-3.49 5.727-6.73 7.625-11.59-.338-7.766-3.29-11.386-7.285-16.956-1.715-3.088-1.715-3.088-2.274-6.294.808-4.424 2.622-5.523 5.559-8.07 2.88-1.37 2.88-1.37 6.059-2.418 1.18-.397 2.36-.796 3.577-1.207 1.882-.61 1.882-.61 3.802-1.23 1.3-.432 2.6-.864 3.9-1.3 2.626-.876 5.253-1.744 7.88-2.61a555.059 555.059 0 0010.376-3.578l3.01-1.063c1.84-.65 3.679-1.308 5.517-1.971 4.38-1.527 8.286-2.736 12.879-2.163z" fill="#96E1C7"/><path d="M56.387 285.535l1.718 1.209c11.328 7.894 23.027 12.38 36.282 15.79.87.227 1.743.452 2.64.685 14.818 3.34 30.319 3.667 45.439 3.632 2.788-.003 5.575.02 8.362.045 10.284.035 20.19-.583 30.339-2.31 4.21-.704 8.372-1.22 12.64-1.394l2.442-.1c2.138.443 2.138.443 3.899 2.3 1.552 2.684 1.64 4.494 1.614 7.58l.023 2.809c-.496 3.43-1.11 5.12-3.398 7.754a51.239 51.239 0 01-8.188 2.188l-2.154.458c-13.963 2.832-27.768 3.73-41.97 3.666l-2.492-.004c-27.264-.088-63.584-.23-84.9-19.788-3.48-4.304-2.841-9.118-2.608-14.395l.068-2.953a381.4 381.4 0 01.244-7.172z" fill="#90DFC8"/><path d="M55.974 329.85l3 2.562c20.426 15.239 49.342 17.778 74 18.438l2.44.083c17.24.53 36.795.366 53.56-4.083a65.591 65.591 0 014.562-.25l2.317-.078c2.12.328 2.12.328 3.875 1.512 2.565 3.739 1.66 8.486 1.246 12.816-.812 3.5-.812 3.5-3 6-34.81 13.454-90.701 9.402-124.97-3.648-7.156-3.192-13.43-7.151-17.03-14.352a68.642 68.642 0 01-.098-4.352l.01-2.578.026-2.695.013-2.72c.012-2.218.028-4.436.049-6.655zM55.974 375.172l3 2.562c20.426 15.239 49.342 17.778 74 18.438l2.44.083c17.24.53 36.795.366 53.56-4.083a65.591 65.591 0 014.562-.25l2.317-.078c2.12.328 2.12.328 3.875 1.512 2.565 3.739 1.66 8.486 1.246 12.816-.812 3.5-.812 3.5-3 6-34.81 13.454-90.701 9.402-124.97-3.648-7.156-3.192-13.43-7.151-17.03-14.352a68.642 68.642 0 01-.098-4.352l.01-2.578.026-2.695.013-2.72c.012-2.218.028-4.436.049-6.655zM55.974 420.494l3 2.562c20.426 15.239 49.342 17.778 74 18.438l2.44.083c17.24.53 36.795.366 53.56-4.083a65.591 65.591 0 014.562-.25l2.317-.078c2.12.328 2.12.328 3.875 1.512 2.565 3.739 1.66 8.486 1.246 12.816-.812 3.5-.812 3.5-3 6-34.81 13.454-90.701 9.402-124.97-3.648-7.156-3.192-13.43-7.151-17.03-14.352a68.642 68.642 0 01-.098-4.352l.01-2.578.026-2.695.013-2.72c.012-2.218.028-4.436.049-6.655z" fill="#8EDFC8"/><path d="M375.743 232.778c.764-.01 1.526-.017 2.313-.026 1.617-.015 3.233-.024 4.85-.03 2.467-.015 4.932-.061 7.398-.108 1.572-.01 3.143-.018 4.715-.024l2.226-.055c4.467.028 7.373.779 10.866 5.04 1.767 4.335 2.255 7.575 2.264 12.62l.02 3.993-.006 4.348.015 4.609c.015 5.036.013 10.07.01 15.106l.014 10.525c.008 7.364.007 14.727.002 22.09-.006 9.4.01 18.802.034 28.203.015 7.253.016 14.506.013 21.758 0 3.463.005 6.928.016 10.39.075 28.935-.818 53.449-14.813 75.566-7.685 10.348-16.965 16.755-27.158 19.033-2.468-.568-2.47-.568-4.594-3.782-2.177-4.95-2.383-7.446-2.39-13.313l-.033-5.5.025-5.993c-.005-2.113-.013-4.228-.022-6.342a3284.85 3284.85 0 01.002-17.194c.01-6.002 0-12.003-.006-18.005-.007-10.078.003-20.155.022-30.234a9249.05 9249.05 0 00-.008-34.941c-.017-10.005-.02-20.01-.01-30.015.007-5.974.007-11.947-.006-17.92-.011-5.616-.003-11.231.02-16.848.005-2.06.003-4.12-.005-6.18-.011-2.813.005-5.628.022-8.441l.005-4.77c.632-5.354 2.02-7.87 4.509-11.758 3.077-2.301 6.313-1.774 9.69-1.802z" fill="#93DFC7"/><path d="M305.98 285.906l2.264-.037c1.584-.022 3.166-.04 4.749-.051a415.66 415.66 0 007.238-.162c1.54-.015 3.078-.03 4.617-.04l2.177-.081c4.988.033 7.477 1.685 10.979 6.895 1.186 3.509 1.176 5.452 1.187 9.35l.018 3.977.004 4.37.015 4.6c.016 5.037.022 10.073.029 15.11.006 3.496.01 6.989.017 10.484.01 7.336.016 14.672.02 22.008.006 9.398.03 18.796.062 28.195.019 7.222.024 14.443.025 21.665.003 3.466.01 6.93.026 10.394.018 4.849.016 9.699.009 14.55l.028 4.334c-.033 7.937-.527 13.446-3.523 20.318-3.533 4.133-7.806 3.603-12.13 3.65-.767.015-1.535.028-2.325.044-1.62.02-3.24.035-4.86.04-2.47.02-4.938.095-7.407.172-1.577.016-3.155.026-4.732.034l-2.225.09c-3.66-.048-5.674-.735-8.675-3.882-3.416-6.756-3.141-12.126-3.082-20.358l-.03-4.743c-.021-5.17-.006-10.34.01-15.51-.003-3.594-.008-7.19-.014-10.783-.007-7.534.004-15.065.029-22.597.028-9.656.012-19.311-.02-28.966-.018-7.424-.012-14.846 0-22.27.004-3.558 0-7.12-.012-10.68-.012-4.975.007-9.95.037-14.925l-.033-4.46c.078-7.085.174-10.131 3.22-15.858 4.212-4.65 7.199-4.797 12.308-4.877zM237.489 348.96l2.264-.024c1.583-.014 3.166-.025 4.749-.033a646.11 646.11 0 007.237-.105c1.54-.01 3.079-.02 4.618-.026l2.175-.053c4.988.022 7.478 1.095 10.98 4.479 1.186 2.279 1.177 3.54 1.187 6.073l.017 2.583c0 .937.004 1.874.005 2.839l.016 2.987c.014 3.272.02 6.543.027 9.815.005 2.27.012 4.539.018 6.809.01 4.765.017 9.53.02 14.295.006 6.104.032 12.208.06 18.313.02 4.69.027 9.38.028 14.072.003 2.25.01 4.5.024 6.75.019 3.15.018 6.3.009 9.452.016 1.393.016 1.393.03 2.815-.035 5.155-.528 8.733-3.523 13.197-3.533 2.684-7.806 2.34-12.13 2.37l-2.325.029c-1.62.014-3.24.023-4.86.027-2.47.012-4.938.06-7.407.11-1.577.01-3.155.018-4.732.023l-2.225.059c-3.661-.032-5.674-.478-8.675-2.522-3.416-4.388-3.141-7.876-3.082-13.223l-.03-3.081c-.021-3.358-.006-6.715.01-10.073-.003-2.335-.008-4.67-.014-7.005-.007-4.893.004-9.785.029-14.677.028-6.272.012-12.543-.02-18.814-.018-4.822-.012-9.643 0-14.464.004-2.312 0-4.625-.012-6.937-.013-3.232.007-6.463.037-9.695l-.033-2.897c.077-4.602.174-6.58 3.22-10.3 4.21-3.02 7.199-3.116 12.308-3.168z" fill="#92DEC7"/><path d="M193.096 45.703c3.825 1.508 7.48 4.788 9.765 8.346.374 1.549.374 1.549.68 3.429l.333 1.846c.028 6.882-4.65 11.454-8.57 16.262-.696.864-1.391 1.73-2.085 2.596-1.884 2.34-3.774 4.672-5.666 7.002a3175.447 3175.447 0 00-5.936 7.347 7349.04 7349.04 0 01-9.976 12.32 6624.542 6624.542 0 00-11.516 14.24c-3.29 4.089-6.59 8.172-9.892 12.249a2857.27 2857.27 0 00-5.903 7.306 1540.525 1540.525 0 01-5.563 6.86c-.68.84-1.357 1.678-2.034 2.519-.922 1.15-1.857 2.293-2.79 3.434-.52.64-1.04 1.28-1.574 1.943-2.762 2.75-5.71 4.223-9.881 4.2-5.317-.501-8.677-3.001-12.742-6.537-.556-.471-1.11-.944-1.682-1.43a920.534 920.534 0 01-5.445-4.675 6423.973 6423.973 0 00-3.804-3.252c-2.651-2.267-5.298-4.54-7.941-6.82a2942.943 2942.943 0 00-10.19-8.73 4888.379 4888.379 0 01-7.84-6.715 1634.843 1634.843 0 00-3.758-3.217c-1.75-1.498-3.496-3.002-5.236-4.508-.78-.661-.78-.661-1.572-1.338-3.48-3.024-5.552-5.445-6.258-10-.388-3.47-.056-6.12 1.656-8.972 3.129-3.542 5.984-5.271 10.925-5.371 8.753.576 17.675 10.863 24.166 16.485l2.18 1.889a2168.58 2168.58 0 019.037 7.847c1.86 1.623 3.724 3.237 5.595 4.846 1.048.907 2.09 1.826 3.129 2.738l1.919 1.648c.555.48 1.109.964 1.68 1.46 1.41 1.079 1.41 1.079 2.705.778 1.785-.844 2.66-1.991 3.889-3.522.502-.623 1.004-1.241 1.52-1.881.549-.693 1.103-1.385 1.65-2.08l1.754-2.176c1.259-1.562 2.51-3.13 3.765-4.7 1.982-2.482 3.973-4.955 5.963-7.431 4.587-5.697 9.163-11.411 13.74-17.12a6582.657 6582.657 0 0112.583-15.675c1.976-2.46 3.949-4.921 5.916-7.385 1.229-1.536 2.463-3.07 3.694-4.601.57-.707 1.138-1.418 1.704-2.13 5.17-6.51 8.79-10.08 17.906-9.324z" fill="#A6EACC" style="transform-origin:91.233px 181.691px"/><g><path d="M465.834-57.55c2.438.811 2.438.811 4.438 2.811.59 1.83.59 1.83 1.078 4.036l.569 2.44.603 2.587c2.72 10.82 6.114 18.064 15.683 24.375 4.367 2.225 8.893 3.615 13.62 4.878 6.49 1.761 6.49 1.761 8.447 4.684.125 3 .124 3-1 6-3.216 1.86-6.262 2.785-9.817 3.821-10.217 3.106-17.482 7.505-22.773 17.012-2.183 4.903-3.832 9.97-5.407 15.098-1.816 5.882-1.816 5.882-4.003 8.07-2.438.375-2.438.375-5 0-3.296-3.296-3.86-7.163-4.75-11.563-2.134-9.298-5.61-17.176-13.563-22.938-3.916-2.324-7.867-3.688-12.254-4.85-9.25-2.466-9.25-2.466-12.433-5.65-.25-3-.25-3 0-6 2.67-2.67 5.563-3.028 9.124-3.874 10.6-2.687 19.199-6.25 25-15.938 2.822-5.399 4.278-10.862 5.495-16.792 1.827-8.582 1.827-8.582 6.943-8.208z" fill="#B4F3D8"/><path d="M522.272 56.261c1.675.286 3.344.618 5 1l.883 3.035c2.77 9.138 5.187 15.647 13.367 21.153 3.729 1.973 7.706 3.288 11.71 4.59 2.04 1.222 2.04 1.222 2.954 3.726l.086 2.496c-2.521 2.521-4.753 3.041-8.125 4.188-7.821 2.964-13.568 6.435-17.187 14.187a126.447 126.447 0 00-1.688 4.625l-.902 2.574a264.633 264.633 0 00-2.098 6.426c-2.375.625-2.375.625-5 1-2.26-2.259-2.318-2.959-2.812-6-1.717-8.138-4.791-14.93-11.79-19.703-3.82-2.066-7.852-3.523-11.957-4.926-2.441-1.37-2.441-1.37-3.29-4.023l-.151-2.348c3.557-2.263 7.064-3.879 11-5.375 8.435-3.489 12.212-8.527 16-16.625.89-2.4 1.69-4.798 2.422-7.25.578-1.75.578-1.75 1.578-2.75z" fill="#AFF0D5"/></g></svg>